
PLOT

Slacker Tommy lives in a rundown flat with his dragon lizard. He gets back together with his annoying
ex-girlfriend, Jean. During a fight Jean accidentally falls, hits her head and dies. Even though it was
an accident Tommy is afraid of going to jail and decides to hide the body in a local wood, abetted by
his friend Noel. Whilst digging the grave he stumbles across another buried corpse.
 
http://www.imdb.com/title/tt0349340/

Encoded By .......: BigPerm1828
Runtime ..........: 1h 23mn
File Size ........: 1.12 GB
Resolution .......: 704 x 384
IMDb URL .........: ttp://www.imdb.com/title/tt0349340/
Genre ............: Comedy | Drama
Language .........: English
Subtitles ........: None
Video
ID : 0
Format : MPEG-4 Visual
Format profile : Simple@L3
Format settings, BVOP : No
Format settings, QPel : No
Format settings, GMC : No warppoints
Format settings, Matrix : Default (H.263)
Codec ID : XVID
Codec ID/Hint : XviD
Duration : 1h 23mn
Bit rate : 1 716 Kbps
Width : 704 pixels
Height : 384 pixels
Display aspect ratio : 16:9
Frame rate : 29.970 fps
Color space : YUV
Chroma subsampling : 4:2:0
Bit depth : 8 bits
Scan type : Progressive
Compression mode : Lossy
Bits/(Pixel*Frame) : 0.212
Stream size : 1.00 GiB (89%)
Writing library : XviD 64

Audio
ID : 1
Format : AC-3
Format/Info : Audio Coding 3
Mode extension : CM (complete main)
Codec ID : 2000
Duration : 1h 23mn
Bit rate mode : Constant
Bit rate : 192 Kbps
Channel(s) : 2 channels
Channel positions : Front: L R
Sampling rate : 48.0 KHz
Bit depth : 16 bits
Compression mode : Lossy
Stream size : 115 MiB (10%)
Alignment : Aligned on interleaves
Interleave, duration : 33 ms (1.00 video frame)
Interleave, preload duration : 512 ms





